<?xml version="1.0" encoding="UTF-8"?>
<svg id="Layer_1" data-name="Layer 1" xmlns="http://www.w3.org/2000/svg" baseProfile="tiny" version="1.2" viewBox="0 0 80 80">
  <path d="M21.7,25.1l26.3,26.1c4.4,4.4,4.4,11.5,0,15.8-4.4,4.4-11.5,4.4-15.9,0L5.8,41c-4.4-4.4-4.4-11.5,0-15.8,4.4-4.4,11.5-4.4,15.9,0Z" fill="#58e3d0" fill-rule="evenodd" stroke-width="0"/>
  <path d="M48,67.1l26.3-26.1c4.4-4.4,4.4-11.5,0-15.8s-11.5-4.4-15.9,0l-26.3,26.1c-4.4,4.4-4.4,11.5,0,15.8,4.4,4.4,11.5,4.4,15.9,0Z" fill="#70d955" fill-rule="evenodd" stroke-width="0"/>
  <path d="M40,70.4c2.9,0,5.8-1.1,8-3.3l.2-.2c4.2-4.4,4.1-11.3-.2-15.6l-8-7.9-8,7.9c-4.3,4.3-4.4,11.2-.2,15.6l.2.2c2.2,2.2,5.1,3.3,8,3.3h0Z" fill="#52c41a" fill-rule="evenodd" stroke-width="0"/>
</svg>